<svg xmlns="http://www.w3.org/2000/svg" xmlns:xlink="http://www.w3.org/1999/xlink" width="210" height="165" viewBox="0 0 210 165"><defs><style>.a,.r{fill:#fff;}.b{fill:none;}.c{isolation:isolate;clip-path:url(#c);}.d{fill:url(#d);}.e,.f,.h,.i{opacity:0;}.f,.j{fill:#7d97f4;}.g,.i{fill:#bdd0fb;}.h{fill:#91b3fa;}.k{fill:url(#e);}.l{fill:url(#f);}.m{fill:#1f5aa9;}.n{fill:url(#g);}.o{fill:url(#h);}.p{fill:url(#i);}.q{fill:url(#j);}.r{opacity:0.46;}.s{fill:url(#k);}.t{fill:url(#l);}.u{fill:url(#m);}.v{clip-path:url(#n);}.w{fill:url(#o);}.x{fill:url(#p);}.y{fill:url(#q);}.z{fill:url(#r);}.aa{fill:url(#u);}.ab{fill:url(#w);}.ac{fill:url(#x);}.ad{fill:url(#y);}.ae{fill:url(#aa);}.af{fill:url(#ab);}.ag{fill:url(#ac);}.ah{fill:url(#af);}.ai{fill:url(#ag);}.aj{fill:url(#ah);}.ak{filter:url(#a);}</style><filter id="a" x="-9" y="-6" width="228" height="183" filterUnits="userSpaceOnUse"><feOffset dy="3" input="SourceAlpha"/><feGaussianBlur stdDeviation="3" result="b"/><feFlood flood-opacity="0.059"/><feComposite operator="in" in2="b"/><feComposite in="SourceGraphic"/></filter><clipPath id="c"><g class="ak" transform="matrix(1, 0, 0, 1, 0, 0)"><path class="a" d="M.846,0H209.154c.467,0,.846.966.846,2.157V162.843c0,1.191-.379,2.157-.846,2.157L2.024,164.876C.8,164.8,0,163.035,0,161.843V2.157C0,.966.379,0,.846,0Z" transform="translate(-1684 18528.33)"/></g></clipPath><linearGradient id="d" x1="1.13" y1="1.295" x2="0.236" y2="0.19" gradientUnits="objectBoundingBox"><stop offset="0" stop-color="#dae3fe"/><stop offset="1" stop-color="#e9effd"/></linearGradient><linearGradient id="e" x1="-0.046" y1="0.527" x2="0.95" y2="0.527" gradientUnits="objectBoundingBox"><stop offset="0" stop-color="#09005d"/><stop offset="1" stop-color="#1a0f91"/></linearGradient><linearGradient id="f" y1="0.5" x2="1" y2="0.5" gradientUnits="objectBoundingBox"><stop offset="0" stop-color="#4f52ff"/><stop offset="1" stop-color="#4042e2"/></linearGradient><linearGradient id="g" x1="0.395" y1="3.121" x2="0.975" y2="-11.31" gradientUnits="objectBoundingBox"><stop offset="0" stop-color="#fe7062"/><stop offset="1" stop-color="#ff928e"/></linearGradient><linearGradient id="h" x1="1.335" y1="-0.509" x2="-0.624" y2="1.858" gradientUnits="objectBoundingBox"><stop offset="0" stop-color="#e1473d"/><stop offset="1" stop-color="#e9605a"/></linearGradient><linearGradient id="i" x1="0.453" y1="1.078" x2="0.789" y2="-3.018" gradientUnits="objectBoundingBox"><stop offset="0" stop-color="#febbba"/><stop offset="1" stop-color="#ff928e"/></linearGradient><linearGradient id="j" x1="0.803" y1="-4.79" x2="0.332" y2="3.588" xlink:href="#h"/><linearGradient id="k" x1="0.449" y1="1.572" x2="0.622" y2="-2.078" xlink:href="#g"/><linearGradient id="l" x1="-45.421" y1="-13.325" x2="-49.207" y2="-6.021" xlink:href="#h"/><linearGradient id="m" x1="-117.94" y1="-13.123" x2="-128.001" y2="-5.841" xlink:href="#h"/><clipPath id="n"><path class="b" d="M1559.062,912.717h-153.38c-7.061,0-12.784-3.6-12.784-8.045V786.244c0-4.485,5.826-8.1,12.952-8.045l153.381,1.27c7,.058,12.617,3.642,12.617,8.044V904.671C1571.847,909.115,1566.123,912.717,1559.062,912.717Z" transform="translate(-1392.897 -778.198)"/></clipPath><linearGradient id="o" x1="0.94" y1="-0.484" x2="-1.895" y2="6.012" gradientUnits="objectBoundingBox"><stop offset="0" stop-color="#cb236d"/><stop offset="1" stop-color="#4c246d"/></linearGradient><linearGradient id="p" x1="0" y1="0.5" x2="1" y2="0.5" xlink:href="#i"/><linearGradient id="q" x1="0" y1="0.5" x2="1" y2="0.5" xlink:href="#e"/><linearGradient id="r" x1="3.08" y1="-2.223" x2="-3.938" y2="5.384" xlink:href="#o"/><linearGradient id="u" x1="0.435" y1="0.276" x2="1.041" y2="-0.587" xlink:href="#g"/><linearGradient id="w" x1="34.743" y1="1.605" x2="36.743" y2="4.278" xlink:href="#i"/><linearGradient id="x" x1="0.339" y1="0.706" x2="2.358" y2="-1.072" xlink:href="#i"/><linearGradient id="y" x1="0.947" y1="0.022" x2="2.468" y2="-2.185" xlink:href="#g"/><linearGradient id="aa" x1="0.384" y1="-0.062" x2="0.897" y2="2.428" xlink:href="#e"/><linearGradient id="ab" x1="0.932" y1="-3.497" x2="0.359" y2="1.805" xlink:href="#f"/><linearGradient id="ac" x1="0.605" y1="-1.235" x2="0.461" y2="1.146" xlink:href="#f"/><linearGradient id="af" x1="-21.567" y1="-6.186" x2="-21.889" y2="-7.252" xlink:href="#i"/><linearGradient id="ag" x1="-16.331" y1="-5.826" x2="-16.126" y2="-4.647" xlink:href="#e"/><linearGradient id="ah" x1="-71.508" y1="-32.447" x2="-72.451" y2="-37.094" xlink:href="#i"/></defs><g class="c" transform="translate(1684 -18528.33)"><g transform="matrix(1, 0.017, -0.017, 1, -2148.143, 18064.346)"><path class="d" d="M659.523,632.569a74.341,74.341,0,0,1-11.377,9.579c-37.112,26.629-81.026,18.867-90.359,16.971-13.782-2.8-40.422-8.21-59.682-30.859-29.139-34.267-24.6-88.254-2-123.891,4.134-6.519,25.973-42.7,70.36-48.5,26.863-3.511,58.176,3.571,80.852,22.569C694.916,518.314,691.528,598.876,659.523,632.569Z" transform="translate(-28.137 1.165)"/><g transform="translate(447.294 468.171)"><g class="e" transform="translate(7.085 0)"><path class="f" d="M592.525,740.177s.638-26.814-11.712-33.99-35.832-11.663-36.712-50.165c-.515-22.541-1.073-32.4-1.447-36.693a2.538,2.538,0,0,1,3-2.718c11.7,2.2,49.693,11.273,57.659,37.208C612.755,684.564,592.525,740.177,592.525,740.177Z" transform="translate(-542.644 -616.566)"/><path class="g" d="M694.536,759.8c12.839,11.452,27.686,31.717,35.6,51.982a95.262,95.262,0,0,1,5.277,23.062,106.23,106.23,0,0,1-.818,29.009.857.857,0,0,1-1,.683.87.87,0,0,1-.687-.985,117.621,117.621,0,0,0-2.723-42.359c-4.672-17.345-15.092-34.161-25.869-48.424l-1.109-1.405c-8.35-10.723-10.108-10.8-9.327-11.55A.488.488,0,0,1,694.536,759.8Z" transform="translate(-682.483 -749.047)"/></g><g transform="translate(0 71.342)"><path class="h" d="M524.107,1680.5c1.671.819-15.819-21.174-21.3-55.716-2.582-16.277-2.615-36.67-11.887-44.53-7.717-6.541-33.977-2.411-42.568-.842a1.289,1.289,0,0,0-.6,2.255c4.121,3.46,12.935,11.622,15.231,19.849,3.027,10.842,13.335,17.739,22.564,19.605s14.362,3.677,18.858,18.436S519.359,1678.173,524.107,1680.5Z" transform="translate(-447.294 -1576.68)"/><path class="i" d="M621.127,1675.123c10.962.46,22.729,5.46,28.7,14.84l.563.9a210.352,210.352,0,0,1,12.777,29.386.294.294,0,0,1-.186.371.3.3,0,0,1-.368-.176c-2.855-6.987-6.955-15.844-10.22-22.469-3.5-7.228-5.953-12.124-13.94-16.812a44.453,44.453,0,0,0-17.359-5.565.236.236,0,0,1,.034-.471Z" transform="translate(-607.983 -1667.808)"/></g><g class="e" transform="translate(1.224 111.854)"><path class="j" d="M531.861,2188.09c.991.522-5.585-10.8-6.09-20.771s-2.755-26.995-11.355-37.178-18.019-11.11-29.886-1.854c-9.89,7.715-16.058,11.608-19.676,12.331a1.368,1.368,0,0,0-.917,1.994c2.321,4.273,8.881,14.089,19.9,13.4,14.051-.881,31.079-10.015,36.269-2.4s4.523,11.883,4.683,15.495S525.3,2184.63,531.861,2188.09Z" transform="translate(-463.77 -2121.887)"/><path class="g" d="M795.768,2278.907c4.3-4.127,11.314-8.183,17.441-7.426,7.972,1.284,13.282,6.607,16.178,14.531a48.378,48.378,0,0,1,2.268,9.286.263.263,0,0,1-.514.106c-.487-1.938-.97-3.966-1.691-6.065-4.2-13.533-13.17-15.357-13.519-15.634-.678.068-4.789-3.01-14.543,2.237a43.354,43.354,0,0,0-5.258,3.373l-.009.006a.272.272,0,0,1-.352-.414Z" transform="translate(-771.021 -2260.28)"/></g></g><g transform="translate(500.136 470.344)"><g transform="translate(0 0)"><path class="k" d="M1166.695,646.515a9.013,9.013,0,0,0-8.224,8.961c-.081,28.526-.214,126.92,1.645,161.746a7,7,0,0,0,6.917,6.627c18.273.2,70.836.558,100.676-1.35a11.786,11.786,0,0,0,11.044-11.773c-.036-29.939-.515-114.138-4.616-152.625a9.618,9.618,0,0,0-8.822-8.571C1245.385,647.977,1192.461,644.274,1166.695,646.515Z" transform="translate(-1158.432 -645.813)"/><path class="l" d="M1249.983,769.39c-.359,24.4-1.381,105.575.4,135.535a8.327,8.327,0,0,0,7.863,7.983c17.293.6,61.639,1.768,86.907-1.012a9.36,9.36,0,0,0,8.149-9.22c.631-24.9,2.339-100.505.606-130.13a9.213,9.213,0,0,0-8.413-8.8c-18.724-1.262-66.806-4.171-88.293-2.382A8.038,8.038,0,0,0,1249.983,769.39Z" transform="translate(-1242.609 -752.251)"/><path class="m" d="M1819.884,694.958a1.265,1.265,0,0,0,1.226,1.239c3.328.1,12.7.388,16.891.539a1.266,1.266,0,0,0,1.283-1.534,1.292,1.292,0,0,0-1.18-1.135,161.879,161.879,0,0,0-17.035-.4A1.309,1.309,0,0,0,1819.884,694.958Z" transform="translate(-1770.727 -690.013)"/><path class="j" d="M1469.562,993.693H1398.8a5.9,5.9,0,0,1-5.9-5.9V900.965a5.9,5.9,0,0,1,5.976-5.9l70.767.93a5.9,5.9,0,0,1,5.821,5.9v85.9A5.9,5.9,0,0,1,1469.562,993.693Z" transform="translate(-1375.475 -876.546)"/></g><path class="j" d="M1402.591,2274.376h-91.463a1.976,1.976,0,0,1-1.689-2.171c0-1.2.756-2.17,1.61-2.17h91.463a2.227,2.227,0,0,1,.079,4.341Z" transform="translate(-1298.218 -2149.346)"/><path class="n" d="M1361.08,2270.449h-49.55a2.311,2.311,0,0,1,0-4.6h49.55a2.311,2.311,0,0,1,0,4.6Z" transform="translate(-1298.218 -2145.47)"/><circle class="o" cx="4.286" cy="4.286" r="4.286" transform="translate(59.352 120.178) rotate(-22.5)"/><g transform="translate(23.258 130.51)"><path class="a" d="M1868.664,2403.683v16.242c0,1.043.841,1.662,1.568,1.156l12.85-8.94a1.608,1.608,0,0,0,0-2.5l-12.85-7.312C1869.505,2401.913,1868.664,2402.64,1868.664,2403.683Z" transform="translate(-1839.147 -2402.209)"/><g transform="translate(0 2.029)"><g transform="translate(60.233)"><path class="a" d="M2282.045,2431.951v8.786c0,.564.448.9.833.63l6.86-4.829a.88.88,0,0,0,0-1.357l-6.86-3.965C2282.493,2430.993,2282.045,2431.386,2282.045,2431.951Z" transform="translate(-2282.045 -2431.031)"/><path class="a" d="M2341.256,2430.313v8.764c0,.563.445.9.829.628l6.824-4.816a.879.879,0,0,0,0-1.355l-6.824-3.954C2341.7,2429.357,2341.256,2429.749,2341.256,2430.313Z" transform="translate(-2336.857 -2429.516)"/></g><g transform="translate(0 1.455)"><path class="a" d="M1543.379,2449.879v9.027c0,.578-.472.957-.88.7l-7.311-4.522a.892.892,0,0,1,0-1.407l7.311-4.509C1542.907,2448.921,1543.379,2449.3,1543.379,2449.879Z" transform="translate(-1530.132 -2449.093)"/><path class="a" d="M1480.012,2451.618v9.05c0,.582-.475.959-.885.707l-7.349-4.533a.893.893,0,0,1,0-1.412l7.349-4.52C1479.537,2450.657,1480.012,2451.037,1480.012,2451.618Z" transform="translate(-1471.431 -2450.701)"/></g></g></g></g><g transform="translate(555.341 618.522)"><g transform="translate(9.586)"><path class="p" d="M2187.679,2698.321H2112.83V2683.89h74.849C2186.076,2683.89,2186.076,2698.321,2187.679,2698.321Z" transform="translate(-2106.704 -2680.626)"/><path class="q" d="M2036.512,2654.058v-6.6c0-2.326,1.479-4.215,3.3-4.215h71.229a2.55,2.55,0,0,0,2.6-2.5.774.774,0,0,0-.79-.759h-77.847c-1.785,0-4.62,2.7-4.62,6.039v9.222c0,3.146,2.751,5.7,4.435,5.7h77.624a1.178,1.178,0,0,0,1.2-1.155,2.149,2.149,0,0,0-2.188-2.109h-72.111C2037.779,2657.669,2036.512,2656.052,2036.512,2654.058Z" transform="translate(-2030.386 -2639.976)"/><path class="r" d="M2207.811,2720.855h-70.179a.251.251,0,1,1,0-.5h70.179a.251.251,0,1,1,0,.5Z" transform="translate(-2129.429 -2714.38)"/><path class="r" d="M2207.811,2749.683h-70.179a.252.252,0,1,1,0-.5h70.179a.252.252,0,0,1,0,.5Z" transform="translate(-2129.429 -2741.064)"/><path class="r" d="M2207.811,2778.51h-70.179a.251.251,0,1,1,0-.5h70.179a.251.251,0,1,1,0,.5Z" transform="translate(-2129.429 -2767.75)"/><path class="r" d="M2207.811,2807.337h-70.179a.251.251,0,1,1,0-.5h70.179a.251.251,0,1,1,0,.5Z" transform="translate(-2129.429 -2794.436)"/><path class="r" d="M2207.811,2836.163h-70.179a.251.251,0,1,1,0-.5h70.179a.251.251,0,1,1,0,.5Z" transform="translate(-2129.429 -2821.121)"/></g><g transform="translate(0 20.803)"><rect class="s" width="99.894" height="24.113" rx="12.056" transform="translate(99.894 24.113) rotate(180)"/><rect class="t" width="11.735" height="18.57" rx="5.868" transform="translate(88.604 21.341) rotate(180)"/><rect class="u" width="4.403" height="18.57" rx="2.202" transform="translate(75.631 21.341) rotate(180)"/></g></g><g transform="translate(496.959 452.972)"><g class="v" transform="translate(0 0)"><g transform="matrix(0.996, 0.087, -0.087, 0.996, 38.765, 13.39)"><path class="w" d="M1.343,0S.451,5.049.013,10.048A3.445,3.445,0,0,0,3.308,13.78c6.657.278,20.9.816,26.007.588a1.121,1.121,0,0,0,.987-1.536,2.506,2.506,0,0,0-1.283-1.35L5.5.672Z" transform="translate(53.437 241.142)"/><path class="x" d="M0,.933.717,6.971s4.12,1.921,6.934-.239L5.945,0Z" transform="translate(54.049 237.243)"/><path class="y" d="M18.682,0c-.31,1.578-1.662,78.72,6.584,113.29a1.175,1.175,0,0,1-.688,1.365,20.448,20.448,0,0,1-6.715,1.364,2.021,2.021,0,0,1-2.006-1.45C13.5,106.553,2.2,66.365.732,27.975c-1.647-42.895,0-1.46,0-1.46L1.7,0Z" transform="translate(35.906 124.607)"/><path class="z" d="M2.837,0S1.418,2.55.043,9.323a2.1,2.1,0,0,0,1.848,2.518c2.2.215,5.583.493,8.295.476a2.1,2.1,0,0,0,2.073-2.338A17.665,17.665,0,0,0,8.134.288Z" transform="translate(24.884 243.778)"/><path class="x" d="M0,.355,1.675,9.49s1.655,1.231,4.932.338L5.808,0Z" transform="translate(26.475 235.652)"/><path class="y" d="M2.6,4.27c-6.744,40.7,1.463,100.6,4.23,112.317A1.829,1.829,0,0,0,8.3,117.975a12.288,12.288,0,0,0,5.275-.21,1.678,1.678,0,0,0,1.2-1.543c.37-9.477-.3-67.66,5.986-90.655a5.225,5.225,0,0,1,2.015-2.881l12.2-8.671L35.916,0Z" transform="translate(19.354 122.708)"/><g transform="translate(19.432 18.557)"><path class="aa" d="M45.492,3.3C25.281,2.971,2.98,8.611,2.98,8.611c-6.024,35.152-1.052,75.7-1.052,75.7,15.646,4.1,33.3-2.509,33.3-2.509,2.6-14.693,14.734-56.043,14.734-56.043a66.589,66.589,0,0,0,24.709-7.841C69.557,11.992,67.148,4.455,66.1,0A67.819,67.819,0,0,1,45.492,3.3Z" transform="translate(0 27.997)"/><path class="x" d="M39.089,1.532a3.865,3.865,0,0,0-4.5-1.263C31.617,12.832,16.021,23.018,0,28c1.047,4.455,3.455,11.992,8.565,17.915C35.156,30.962,39.089,1.532,39.089,1.532Z" transform="translate(66.102 0)"/></g><g transform="matrix(0.951, 0.309, -0.309, 0.951, 125.683, 0)"><path class="ab" d="M4.017,21.588c.206.66-2.2,1.666-3.614-1.035-.049-1.295-.839-6.84-.063-7.895C4.459,7.041,12.446,0,12.446,0a1.9,1.9,0,0,1,.238,2.64L8.81,6.677a18.827,18.827,0,0,1,2.261,4.473,5.427,5.427,0,0,1-.543,4A47.574,47.574,0,0,1,8.045,19.21,5.362,5.362,0,0,1,4.017,21.588Z" transform="translate(0 0)"/><path class="ac" d="M4.641,0,1.11,2.993,0,5.974,3.149,9.466S4.206,3.553,4.994,2.273,5.374.375,4.641,0Z" transform="translate(2.475 9.296)"/></g><path class="ad" d="M29.734,19.57,21.982,0S3.1,12.827,0,29.089a44.688,44.688,0,0,1,16.411,4.4C17.806,25.808,29.734,19.57,29.734,19.57Z" transform="translate(0.431 55.165)"/><path class="x" d="M46.662,8.894s-21.2,11.979-28.347,1.75A8.041,8.041,0,0,1,16.841,4.4,44.657,44.657,0,0,0,.43,0,22.449,22.449,0,0,0,2.87,15.387c12.527,22.916,46.6-1.266,46.6-1.266Z" transform="translate(0 84.253)"/><g transform="translate(44.069 60.626)"><path class="ae" d="M.046,43.753l11.568-40.4a1.176,1.176,0,0,1,1-.848c2.1-.245,8.169-.931,15.181-1.524C36.237.27,46.045-.309,51.907.183a1.181,1.181,0,0,1,.966,1.7C49.54,8.628,35.83,36.056,28.965,45.041a1.186,1.186,0,0,1-.954.468l-26.838-.25A1.182,1.182,0,0,1,.046,43.753Z" transform="translate(0 3.924)"/><path class="af" d="M1.016,1.406,9.4.009a.6.6,0,0,1,.671.782L9.244,3.307a.6.6,0,0,1-.49.408L.682,4.792a.6.6,0,0,1-.666-.734l.514-2.2A.6.6,0,0,1,1.016,1.406Z" transform="translate(27.973 0)"/><path class="ag" d="M.015,5.993l.691-3.6a.832.832,0,0,1,.733-.671L18.378,0a.831.831,0,0,1,.892,1.022L18.194,5.511a.836.836,0,0,1-.767.637L.874,6.981A.834.834,0,0,1,.015,5.993Z" transform="translate(22.695 2.513)"/><path class="x" d="M1.116,13.773S-.5,7.147.155,4.8,2.064-.576,6.261.1a61.516,61.516,0,0,1,9.149,2.44,2.4,2.4,0,0,1-3.44,2.075l1.978,1.53s-.283,2.453-2.977,1.142l1.84,2.03a2.145,2.145,0,0,1-3.14.723C7.688,8.743,6.738,14.571,1.116,13.773Z" transform="translate(1.725 24.144)"/></g><path class="x" d="M6.467,0,.038,18.6a.669.669,0,0,0,.3.807c1.753.97,8.069,3.771,15.679-1.055A3.159,3.159,0,0,0,17.476,16.1L19.558,0Z" transform="translate(37.984 33.45)"/><g transform="translate(32.247 6.563)"><path class="ah" d="M16.483,0s7.062,13.293,6.157,18.663-9.658,4.984-17.3.623L0,4.932Z" transform="translate(9.714 9.665)"/><path class="ai" d="M15.393,21.9a.548.548,0,0,0,.238-.8,14.322,14.322,0,0,1-1.964-4.171s-1.27-.814,3.23-1.89S28.11,12.289,29.52,8.458c1.375-3.734-2.239-13.127-8-5.644a.547.547,0,0,1-.868.007c-.945-1.23-3.43-3.784-6.88-2.236C10.541,2.034,10.176,4.4,10.22,5.591a.544.544,0,0,1-.645.558C7.944,5.838,4.026,5.57,2.2,9.588c-1.506,3.31-.527,5.183.365,6.1a.546.546,0,0,1-.235.907C1.256,16.923-.129,17.833.01,20.346c.192,3.474,4.076,3.169,5.182,3.01a.549.549,0,0,1,.487.172c.949,1.05,5.221,5.506,9.845,6.043a.552.552,0,0,0,.579-.73l-2-5.818a.55.55,0,0,1,.3-.682Z" transform="translate(0 0)"/><path class="aj" d="M5.415,1.708S.388-1.741.02,1.164,4.547,5.372,6.973,4.288Z" transform="translate(10.781 21.019)"/></g></g></g></g></g></g></svg>